General
Complete name                    : L.Affaire.Farwell.2009.DVDRip.XviD-UNiTED
Format                           : AVI
Format/Info                      : Audio Video Interleave
File size                        : 984 MiB
Duration                         : 1h 48mn
Overall bit rate                 : 1 265 Kbps

Video
ID                               : 0
Format                           : MPEG-4 Visual
Format profile                   : Simple@L3
Format settings, BVOP            : No
Format settings, QPel            : No
Format settings, GMC             : No warppoints
Format settings, Matrix          : Default (H.263)
Codec ID                         : XVID
Codec ID/Hint                    : XviD
Duration                         : 1h 48mn
Bit rate                         : 1 130 Kbps
Width                            : 720 pixels
Height                           : 576 pixels
Display aspect ratio             : 5:4
Frame rate                       : 25.000 fps
Standard                         : PAL
Resolution                       : 8 bits
Colorimetry                      : 4:2:0
Scan type                        : Progressive
Bits/(Pixel*Frame)               : 0.109
Stream size                      : 879 MiB (89%)
Writing library                  : ZJMedia MPEG Encoder

Audio
ID                               : 1
Format                           : MPEG Audio
Format version                   : Version 1
Format profile                   : Layer 3
Mode                             : Joint stereo
Format_Settings_ModeExtension    : MS Stereo
Codec ID                         : 55
Codec ID/Hint                    : MP3
Duration                         : 1h 48mn
Bit rate mode                    : Constant
Bit rate                         : 128 Kbps
Channel(s)                       : 2 channels
Sampling rate                    : 44.1 KHz
Stream size                      : 99.6 MiB (10%)
Alignment                        : Split accross interleaves
Interleave, duration             : 1000 ms (25.00 video frames)

AUDIO                            : French
SUBTITLES                        : French
SOURCE                           : L.Affaire.Farewell.2009.PAL.FRENCH.DVDR-MAKZEN
IMDB                             : http://www.imdb.com/title/tt0806029/
